<!-- <svg width="50" height="50" viewBox="0 0 50 50" fill="none" xmlns="http://www.w3.org/2000/svg">
<circle cx="25" cy="25" r="25" fill="#1F3BB3"/>
<path d="M29.784 31.888H19.596L17.796 37H12.432L21.792 11.872H27.588L36.912 37H31.548L29.784 31.888ZM28.416 28.036L24.672 17.308L20.928 28.036H28.416Z" fill="white"/>
</svg> -->
<svg fill="#0459b4" width="100px" height="100px" viewBox="0 0 24 24" role="img" xmlns="http://www.w3.org/2000/svg" stroke="#0459b4"><g id="SVGRepo_bgCarrier" stroke-width="0"></g><g id="SVGRepo_tracerCarrier" stroke-linecap="round" stroke-linejoin="round"></g><g id="SVGRepo_iconCarrier"><title>SEAT icon</title><path d="M0 10.325l23.98 4.46c-.021.657-.062 2.712-.103 3.903-.041 1.418-.35 2.281-.925 2.815-.801.72-1.747.884-4.007 1.007-5.219.288-10.54.247-17.219-.226-.699-.04-.966-.185-1.089-.267-.288-.205-.329-.431-.411-1.603-.062-.801-.164-3.123-.205-3.904 3.102.206 7.849.37 11.712.37.966 0 3.493.02 4.171.02.534 0 1.233-.143 1.582-.698L0 13.222zm.02-1.253c.021-.76.062-2.65.103-3.76.041-1.418.35-2.281.925-2.815.801-.72 1.747-.884 4.007-1.007 5.219-.288 10.54-.247 17.219.226.699.04.966.185 1.089.267.288.205.329.431.411 1.603.041.678.144 2.486.185 3.472-2.301-.123-6.206-.308-9.596-.35-3.39-.04-6.452.021-6.822.063-.74.102-1.089.452-1.192.595L24 10.634v2.568Z"></path></g></svg>